# xmcd
#
# Track frame offsets:
#	150
#	26117
#	52547
#	73377
#	93372
#	106900
#	133455
#	152817
#	169020
#	193077
#
# Disc length: 2785 seconds
#
# Revision: 1
# Processed by: cddbd v1.5.2PL0 Copyright (c) Steve Scherf et al.
# Submitted via: audiograbber 1.83.01
#
DISCID=890adf0a
DTITLE=Dirk Hamilton - DIRK HAMILTON - Alias I
DYEAR=1900
DGENRE=Blues
TTITLE0=In The Eyes Of The Night
TTITLE1=The Ballad Of Dicky Pferd
TTITLE2=For Diana
TTITLE3=Alias I
TTITLE4=Los Gatos
TTITLE5=Joanna Ree
TTITLE6=The Classic Sweat Poze
TTITLE7=The Light Of Love
TTITLE8=The Big Boo Hoo
TTITLE9=As A Matter Of Fact
EXTD=
EXTT0=
EXTT1=
EXTT2=
EXTT3=
EXTT4=
EXTT5=
EXTT6=
EXTT7=
EXTT8=
EXTT9=
PLAYORDER=
